<svg width="84" height="54" viewBox="0 0 84 54" fill="none" xmlns="http://www.w3.org/2000/svg">
<path fill-rule="evenodd" clip-rule="evenodd" d="M6 52V50H8V52H52V54H4V52H6ZM8 24H6V26H4V28H2V30H4V32H2V34H4V36H2V38H4V40H2V42H4V44H2V46H4V48H2V50H0V26H2V24H4V22H11V8H13V22H17V10H19V22H37V10H39V22H43V8H45V22H52V24H10V26H8V24ZM17 0H39V2H17V0ZM15 2H17V4H15V2ZM13 4H15V8H13V4ZM19 8H21V10H19V8ZM35 8H37V10H35V8ZM21 6H35V8H21V6ZM39 2H41V4H39V2ZM41 4H43V8H41V4ZM54 26H56V50H54V26ZM52 24H54V26H52V24ZM2 50H4V52H2V50ZM52 50H54V52H52V50ZM33 32H35V36H33V32ZM21 32H23V36H21V32ZM23 30H25V32H23V30ZM31 30H33V32H31V30ZM25 28H31V30H25V28ZM27 46H29V48H27V46ZM23 36H25V38H23V36ZM31 36H33V38H31V36ZM25 38H27V46H25V38ZM29 38H31V46H29V38ZM4 28H6V30H4V28ZM4 32H6V34H4V32ZM4 36H6V38H4V36ZM4 40H6V42H4V40ZM4 44H6V46H4V44ZM6 26H8V28H6V26ZM8 28H10V30H8V28ZM8 32H10V34H8V32ZM6 30H8V32H6V30ZM6 34H8V36H6V34ZM8 36H10V38H8V36ZM6 38H8V40H6V38ZM8 40H10V42H8V40ZM8 44H10V46H8V44ZM6 42H8V44H6V42ZM4 48H6V50H4V48ZM8 48H10V50H8V48ZM6 46H8V48H6V46Z" fill="black"/>
</svg>
