<svg width="60" height="73" viewBox="0 0 60 73" fill="none" xmlns="http://www.w3.org/2000/svg">
<path fill-rule="evenodd" clip-rule="evenodd" d="M8 17H6H4H2V57H58V17H8ZM27 33H33V30H35V38H33V35H27V38H25V30H27V33ZM58 15V11H60V63H58V59H2V63H0V11H2V15H3H58ZM2 9H4V11H2V9ZM56 9H58V11H56V9ZM4 7H56V9H4V7ZM2 63H4V65H2V63ZM56 63H58V65H56V63ZM4 65H56V67H4V65ZM15 30H17V38H15V30ZM43 30H45V38H43V30ZM25 43H35V45H25V43ZM35 28H43V30H35V28ZM17 28H25V30H17V28ZM19 32H23V36H19V32ZM37 32H41V36H37V32ZM17 38H25V40H17V38ZM35 38H43V40H35V38ZM2 19H4V21H2V19ZM2 23H4V25H2V23ZM2 27H4V29H2V27ZM2 31H4V33H2V31ZM2 35H4V37H2V35ZM2 39H4V41H2V39ZM2 43H4V45H2V43ZM2 47H4V49H2V47ZM2 51H4V53H2V51ZM4 17H6V19H4V17ZM6 19H8V21H6V19ZM52 11H54V13H52V11ZM48 11H50V13H48V11ZM44 11H46V13H44V11ZM4 21H6V23H4V21ZM6 23H8V25H6V23ZM6 27H8V29H6V27ZM4 25H6V27H4V25ZM4 29H6V31H4V29ZM6 31H8V33H6V31ZM4 33H6V35H4V33ZM6 35H8V37H6V35ZM6 39H8V41H6V39ZM4 37H6V39H4V37ZM4 41H6V43H4V41ZM6 43H8V45H6V43ZM4 45H6V47H4V45ZM6 47H8V49H6V47ZM6 51H8V53H6V51ZM4 49H6V51H4V49ZM2 55H4V57H2V55ZM6 55H8V57H6V55ZM4 53H6V55H4V53Z" fill="black"/>
</svg>
