<svg width="84" height="54" viewBox="0 0 84 54" fill="none" xmlns="http://www.w3.org/2000/svg">
<path fill-rule="evenodd" clip-rule="evenodd" d="M21 11V13H20H19V15H17V13H15V11H20V9H64V11H21ZM7 20V17H9V15H11V13H15V15H13V17H11V19H9V20V21H7V22V23H5V25H7V27H5V29H3V22H5V20H7ZM11 34V35H13V36H15V35H17V37H15V38H11V36H9V34H7V31H9V33H11V34ZM17 38V37H19V38H20V40H15V38H17ZM20 40H64V42H20V40ZM5 29H7V31H5V29ZM77 20H79V22H77V20ZM77 29H79V31H77V29ZM79 22H81V29H79V22ZM69 13H73V15H69V13ZM75 17H77V20H75V17ZM75 31H77V34H75V31ZM73 34H75V36H73V34ZM73 15H75V17H73V15ZM69 36H73V38H69V36ZM64 38H69V40H64V38ZM64 11H69V13H64V11ZM36 16H50V18H36V16ZM36 33H50V35H36V33ZM40 22H46V29H40V22ZM50 18H52V20H50V18ZM52 20H54V31H52V20ZM50 31H52V33H50V31ZM34 18H36V20H34V18ZM32 20H34V31H32V20ZM34 31H36V33H34V31ZM7 23H9V25H7V23ZM7 27H9V29H7V27ZM11 19H13V21H11V19ZM9 21H11V23H9V21ZM11 23H13V25H11V23ZM11 27H13V29H11V27ZM9 25H11V27H9V25ZM9 29H11V31H9V29ZM11 31H13V33H11V31ZM15 15H17V17H15V15ZM13 17H15V19H13V17ZM15 19H17V21H15V19ZM13 21H15V23H13V21ZM15 23H17V25H15V23ZM15 27H17V29H15V27ZM13 25H15V27H13V25ZM13 29H15V31H13V29ZM15 31H17V33H15V31ZM13 33H15V35H13V33ZM19 15H21V17H19V15ZM17 17H19V19H17V17ZM19 19H21V21H19V19ZM17 21H19V23H17V21ZM19 23H21V25H19V23ZM19 27H21V29H19V27ZM17 25H19V27H17V25ZM17 29H19V31H17V29ZM19 31H21V33H19V31ZM17 33H19V35H17V33ZM19 35H21V37H19V35Z" fill="black"/>
</svg>
