<svg width="84" height="54" viewBox="0 0 84 54" fill="none" xmlns="http://www.w3.org/2000/svg">
<path fill-rule="evenodd" clip-rule="evenodd" d="M18 25V23H20V25H31V27H16V25H18ZM22 9V11H20V9H18V7H31V9H22ZM14 24V11H16V13H18V15H16V17H18V19H16V21H18V23H16V24V25H14V24ZM35 23H33V11H35H37V23H35ZM26 32H44H52V34H44H26H18V32H26ZM54 11H56V25H54V11ZM39 16H46V23H39V16ZM24 11H31V18H24V11ZM52 9H54V11H52V9ZM37 9H39V11H37V9ZM31 9H33V11H31V9ZM16 9H18V11H16V9ZM37 23H39V25H37V23ZM39 7H52V9H39V7ZM39 25H54V27H39V25ZM16 30H18V32H16V30ZM16 44H18V46H16V44ZM52 30H54V32H52V30ZM52 44H54V46H52V44ZM14 32H16V44H14V32ZM54 32H56V44H54V32ZM44 46H52V48H44V46ZM18 46H26V48H18V46ZM26 48H44V50H26V48ZM31 23H33V25H31V23ZM18 11H20V13H18V11ZM20 13H22V15H20V13ZM18 15H20V17H18V15ZM20 17H22V19H20V17ZM20 21H22V23H20V21ZM18 19H20V21H18V19Z" fill="black"/>
</svg>
