<svg width="84" height="54" viewBox="0 0 84 54" fill="none" xmlns="http://www.w3.org/2000/svg">
<path fill-rule="evenodd" clip-rule="evenodd" d="M6 45H44V43H46V45H48V47H46V49H44V47H4V45V11H2V9H4V7H6V9H8V11H6V45ZM21 15H23V17H21V15ZM25 15H27V17H25V15ZM25 19H27V21H25V19ZM21 11H23V13H21V11ZM17 11H19V13H17V11ZM17 3H19V5H17V3ZM21 3H23V5H21V3ZM25 3H27V5H25V3ZM29 3H31V5H29V3ZM33 3H35V5H33V3ZM37 3H39V5H37V3ZM41 3H43V5H41V3ZM45 3H47V5H45V3ZM45 7H47V9H45V7ZM45 11H47V13H45V11ZM45 15H47V17H45V15ZM45 19H47V21H45V19ZM45 23H47V25H45V23ZM45 27H47V29H45V27ZM45 31H47V33H45V31ZM45 35H47V37H45V35ZM49 35H51V37H49V35ZM49 31H51V33H49V31ZM49 27H51V29H49V27ZM49 23H51V25H49V23ZM49 19H51V21H49V19ZM49 15H51V17H49V15ZM49 11H51V13H49V11ZM49 7H51V9H49V7ZM49 3H51V5H49V3ZM17 7H19V9H17V7ZM21 7H23V9H21V7ZM25 7H27V9H25V7ZM29 7H31V9H29V7ZM33 7H35V9H33V7ZM37 7H39V9H37V7ZM41 7H43V9H41V7ZM17 15H19V17H17V15ZM17 19H19V21H17V19ZM17 23H19V25H17V23ZM21 23H23V25H21V23ZM25 23H27V25H25V23ZM25 11H27V13H25V11ZM21 19H23V21H21V19ZM37 15H39V17H37V15ZM41 13H43V19H41V13ZM35 11H41V13H35V11ZM33 13H35V19H33V13ZM29 11H31V13H29V11ZM29 15H31V17H29V15ZM29 19H31V21H29V19ZM29 23H31V25H29V23ZM33 23H35V25H33V23ZM37 23H39V25H37V23ZM41 23H43V25H41V23ZM35 19H41V21H35V19ZM21 31H23V33H21V31ZM25 31H27V33H25V31ZM25 35H27V37H25V35ZM21 27H23V29H21V27ZM17 27H19V29H17V27ZM17 31H19V33H17V31ZM17 35H19V37H17V35ZM25 27H27V29H25V27ZM21 35H23V37H21V35ZM37 31H39V33H37V31ZM41 31H43V33H41V31ZM41 35H43V37H41V35ZM37 27H39V29H37V27ZM33 27H35V29H33V27ZM29 27H31V29H29V27ZM29 31H31V33H29V31ZM29 35H31V37H29V35ZM33 31H35V33H33V31ZM33 35H35V37H33V35ZM41 27H43V29H41V27ZM37 35H39V37H37V35ZM42 41H44V43H42V41ZM0 11H2V13H0V11ZM42 49H44V51H42V49ZM8 11H10V13H8V11Z" fill="black"/>
</svg>
