<svg width="18" height="20" viewBox="0 0 18 20" fill="none" xmlns="http://www.w3.org/2000/svg">
<g clip-path="url(#clip0_32_38)">
<path fill-rule="evenodd" clip-rule="evenodd" d="M16 0H18V6H16V4H14V2H15H12V0H16ZM1 2V17H0V1H1H2V2H1ZM15 19V20H3V19H2V18H16V19H15ZM2 0H8V1H2V0ZM1 17H2V18H1V17ZM16 17H17V18H16V17ZM17 10H18V17H17V10ZM12 4H14V6H12V4ZM10 6H12V8H10V6ZM8 8H10V10H8V8Z" fill="black"/>
</g>
<defs>
<clipPath id="clip0_32_38">
<rect width="18" height="20" fill="white"/>
</clipPath>
</defs>
</svg>
