<svg width="84" height="54" viewBox="0 0 84 54" fill="none" xmlns="http://www.w3.org/2000/svg">
<path fill-rule="evenodd" clip-rule="evenodd" d="M6 48V46H8V48H58V50H4V48H6ZM4 4V2H58V4H10V6H8V4H6V6H4V8H2V10H4V12H2V14H4V16H2V18H4V20H2V22H4V24H2V26H4V28H2V30H4V32H2V34H4V36H2V38H4V40H2V42H4V44H2V46H0V6H2V4H4ZM24 35H22V15H24H33V17H24V33H33V35H24ZM60 6H62V46H60V6ZM2 46H4V48H2V46ZM58 46H60V48H58V46ZM58 4H60V6H58V4ZM33 17H37V19H33V17ZM37 19H41V21H37V19ZM43 23H45V27H43V23ZM37 29H41V31H37V29ZM41 27H43V29H41V27ZM41 21H43V23H41V21ZM33 31H37V33H33V31ZM4 8H6V10H4V8ZM4 12H6V14H4V12ZM4 16H6V18H4V16ZM4 20H6V22H4V20ZM4 24H6V26H4V24ZM4 28H6V30H4V28ZM4 32H6V34H4V32ZM4 36H6V38H4V36ZM4 40H6V42H4V40ZM6 6H8V8H6V6ZM8 8H10V10H8V8ZM6 10H8V12H6V10ZM8 12H10V14H8V12ZM8 16H10V18H8V16ZM6 14H8V16H6V14ZM6 18H8V20H6V18ZM8 20H10V22H8V20ZM6 22H8V24H6V22ZM8 24H10V26H8V24ZM8 28H10V30H8V28ZM6 26H8V28H6V26ZM6 30H8V32H6V30ZM8 32H10V34H8V32ZM6 34H8V36H6V34ZM8 36H10V38H8V36ZM8 40H10V42H8V40ZM6 38H8V40H6V38ZM4 44H6V46H4V44ZM8 44H10V46H8V44ZM6 42H8V44H6V42Z" fill="black"/>
</svg>
