<svg width="30" height="30" viewBox="0 0 30 30" fill="none" xmlns="http://www.w3.org/2000/svg">
<g clip-path="url(#clip0_32_40)">
<path fill-rule="evenodd" clip-rule="evenodd" d="M26.244 21.523L21.888 17.168C22.336 15.7543 22.336 14.2367 21.888 12.823L26.244 8.46796C27.3972 10.4501 28.0047 12.7023 28.0047 14.9955C28.0047 17.2886 27.3972 19.5409 26.244 21.523ZM25.844 24.738L24.744 25.838C24.6396 25.9419 24.4983 26.0002 24.351 26.0002C24.2037 26.0002 24.0624 25.9419 23.958 25.838L19.074 20.954C19.8132 20.4469 20.4523 19.8075 20.959 19.068L25.844 23.953C25.8962 24.0042 25.9376 24.0652 25.9659 24.1326C25.9941 24.2 26.0087 24.2724 26.0087 24.3455C26.0087 24.4185 25.9941 24.4909 25.9659 24.5583C25.9376 24.6257 25.8962 24.6868 25.844 24.738ZM8.471 26.236L12.826 21.882C14.2404 22.33 15.7586 22.33 17.173 21.882L21.528 26.236C19.5456 27.3892 17.293 27.9968 14.9995 27.9968C12.706 27.9968 10.4534 27.3892 8.471 26.236ZM6.041 25.838C5.93674 25.9421 5.79538 26.0007 5.648 26.0007C5.50061 26.0007 5.35926 25.9421 5.255 25.838L4.155 24.738C4.05082 24.6337 3.9923 24.4923 3.9923 24.345C3.9923 24.1976 4.05082 24.0562 4.155 23.952L9.039 19.068C9.54636 19.8076 10.1861 20.447 10.926 20.954L6.04 25.838H6.041ZM3.756 21.523C2.60279 19.5409 1.99527 17.2886 1.99527 14.9955C1.99527 12.7023 2.60279 10.4501 3.756 8.46796L8.111 12.822C7.66261 14.2363 7.66261 15.7546 8.111 17.169L3.756 21.523ZM4.155 5.25296L5.255 4.15296C5.30647 4.10129 5.36764 4.06029 5.43499 4.03231C5.50235 4.00433 5.57456 3.98993 5.6475 3.98993C5.72043 3.98993 5.79265 4.00433 5.86 4.03231C5.92736 4.06029 5.98853 4.10129 6.04 4.15296L10.926 9.03696C10.1861 9.54354 9.54637 10.1826 9.039 10.922L4.155 6.03896C4.05082 5.9347 3.9923 5.79334 3.9923 5.64596C3.9923 5.49857 4.05082 5.35722 4.155 5.25296ZM21.528 3.75296L17.173 8.10796C15.7583 7.66198 14.2407 7.66198 12.826 8.10796L8.471 3.75396C10.4537 2.60137 12.7061 1.99422 14.9995 1.99422C17.2929 1.99422 19.5453 2.60137 21.528 3.75396V3.75296ZM20.223 14.995C20.2214 16.3796 19.6706 17.7071 18.6914 18.6861C17.7122 19.6651 16.3846 20.2156 15 20.217C13.6152 20.2159 12.2874 19.6655 11.3079 18.6864C10.3285 17.7074 9.77759 16.3798 9.776 14.995C9.77759 13.6101 10.3285 12.2825 11.3079 11.3035C12.2874 10.3245 13.6152 9.77402 15 9.77296C16.3845 9.77481 17.7117 10.3255 18.6908 11.3044C19.6699 12.2833 20.2209 13.6105 20.223 14.995ZM23.958 4.15296C24.0623 4.04878 24.2036 3.99026 24.351 3.99026C24.4984 3.99026 24.6397 4.04878 24.744 4.15296L25.844 5.25296C25.8959 5.30438 25.9372 5.36559 25.9653 5.43304C25.9935 5.5005 26.0079 5.57287 26.0079 5.64596C26.0079 5.71905 25.9935 5.79142 25.9653 5.85887C25.9372 5.92633 25.8959 5.98754 25.844 6.03896L20.96 10.922C20.4524 10.1832 19.813 9.54421 19.074 9.03696L23.958 4.15296ZM27.646 6.93896C27.876 6.54896 28.008 6.10896 28.008 5.64596C28.008 4.96296 27.742 4.32096 27.258 3.83896L26.16 2.73896C25.7588 2.34036 25.2367 2.08612 24.6756 2.01608C24.1144 1.94605 23.5458 2.06418 23.059 2.35196C20.6504 0.815416 17.8528 -0.000586165 14.9959 0.000122532C12.139 0.000831228 9.34179 0.818221 6.934 2.35596C5.961 1.80796 4.65 1.92996 3.841 2.73896L2.74 3.83896C2.33825 4.23806 2.08183 4.76027 2.01168 5.32219C1.94153 5.88412 2.0617 6.45334 2.353 6.93896C0.816349 9.34528 -0.00012207 12.1408 -0.00012207 14.996C-0.00012207 17.8511 0.816349 20.6466 2.353 23.053C2.06538 23.5395 1.94733 24.1077 2.01736 24.6685C2.0874 25.2294 2.34156 25.7511 2.74 26.152L3.84 27.252C4.07736 27.4897 4.35938 27.6782 4.66983 27.8065C4.98029 27.9349 5.31305 28.0006 5.649 28C6.10451 27.9973 6.55098 27.8726 6.942 27.639C9.34734 29.1797 12.1435 29.9997 15 30.002C17.8568 29.9994 20.6532 29.1795 23.059 27.639C23.457 27.873 23.903 27.999 24.351 27.999C25.006 27.999 25.661 27.749 26.16 27.252L27.259 26.152C27.6611 25.753 27.9177 25.2308 27.9879 24.6688C28.058 24.1068 27.9376 23.5375 27.646 23.052C29.1833 20.6461 30.0001 17.8506 30.0001 14.9955C30.0001 12.1404 29.1833 9.34487 27.646 6.93896Z" fill="white"/>
</g>
<defs>
<clipPath id="clip0_32_40">
<rect width="30" height="30" fill="white"/>
</clipPath>
</defs>
</svg>
