<svg width="84" height="54" viewBox="0 0 84 54" fill="none" xmlns="http://www.w3.org/2000/svg">
<path fill-rule="evenodd" clip-rule="evenodd" d="M22 42V40H24V42H29V44H8V46H6V48H4V50H6V52H8V50H10V52H31V46H33V52H43V54H4V52H2V46H4V44H6V42H16V14H18V16H20V18H18V20H20V22H18V24H20V26H18V28H20V30H18V32H20V34H18V36H20V38H18V40H20V42H22ZM24 32V34H22V32H20V30H22V28H24V30H40V32H24ZM24 20V22H22V20H20V18H22V16H24V18H40V20H24ZM22 12H20V10H57V12H49V14H47V12H24V14H22V12ZM47 22H55V24H47V50H45V14H47V22ZM22 24H40V26H22V24ZM22 36H40V38H22V36ZM55 20H57V22H55V20ZM57 12H59V20H57V12ZM29 44H31V46H29V44ZM43 50H45V52H43V50ZM18 12H20V14H18V12ZM8 46H10V48H8V46ZM6 48H8V50H6V48ZM20 14H22V16H20V14ZM20 22H22V24H20V22ZM20 26H22V28H20V26ZM20 34H22V36H20V34ZM20 38H22V40H20V38Z" fill="black"/>
</svg>
