<svg width="84" height="54" viewBox="0 0 84 54" fill="none" xmlns="http://www.w3.org/2000/svg">
<path fill-rule="evenodd" clip-rule="evenodd" d="M54 46H56V48H54H52V46H50V44H48V42H46V40H44V38H42V34H44V36H46V38H48V40H50V42H52V44H54V46ZM54 10H52V8H56V6H68V8H58V10H56V12H54V10ZM42 32V34H40V22H41V20H42V18H44V20H46V22H44V24H42V26H44V28H42V30H44V32H42ZM78 16H80V18H78V16ZM76 14H78V16H76V14ZM74 12H76V14H74V12ZM72 10H74V12H72V10ZM68 8H72V10H68V8ZM68 46H72V48H68V46ZM56 48H68V50H56V48ZM82 22H84V34H82V22ZM80 18H82V22H80V18ZM44 16H46V18H44V16ZM3 6H5V8H3V6ZM5 8H7V10H5V8ZM7 6H9V8H7V6ZM9 8H11V10H9V8ZM11 6H13V8H11V6ZM13 8H15V10H13V8ZM15 6H17V8H15V6ZM17 8H19V10H17V8ZM19 6H21V8H19V6ZM21 8H23V10H21V8ZM23 6H25V8H23V6ZM25 8H27V10H25V8ZM27 6H29V8H27V6ZM29 8H31V10H29V8ZM31 6H33V8H31V6ZM33 8H35V10H33V8ZM35 6H37V8H35V6ZM37 8H39V10H37V8ZM39 6H41V8H39V6ZM41 8H43V10H41V8ZM3 18H5V20H3V18ZM5 20H7V22H5V20ZM7 18H9V20H7V18ZM9 20H11V22H9V20ZM11 18H13V20H11V18ZM13 20H15V22H13V20ZM15 18H17V20H15V18ZM17 20H19V22H17V20ZM19 18H21V20H19V18ZM21 20H23V22H21V20ZM23 18H25V20H23V18ZM25 20H27V22H25V20ZM27 18H29V20H27V18ZM29 20H31V22H29V20ZM31 18H33V20H31V18ZM33 20H35V22H33V20ZM35 18H37V20H35V18ZM3 34H5V36H3V34ZM5 36H7V38H5V36ZM7 34H9V36H7V34ZM9 36H11V38H9V36ZM11 34H13V36H11V34ZM13 36H15V38H13V36ZM15 34H17V36H15V34ZM17 36H19V38H17V36ZM19 34H21V36H19V34ZM21 36H23V38H21V36ZM23 34H25V36H23V34ZM25 36H27V38H25V36ZM27 34H29V36H27V34ZM29 36H31V38H29V36ZM31 34H33V36H31V34ZM33 36H35V38H33V36ZM35 34H37V36H35V34ZM3 46H5V48H3V46ZM5 48H7V50H5V48ZM7 46H9V48H7V46ZM9 48H11V50H9V48ZM11 46H13V48H11V46ZM13 48H15V50H13V48ZM15 46H17V48H15V46ZM17 48H19V50H17V48ZM19 46H21V48H19V46ZM21 48H23V50H21V48ZM23 46H25V48H23V46ZM25 48H27V50H25V48ZM27 46H29V48H27V46ZM29 48H31V50H29V48ZM31 46H33V48H31V46ZM33 48H35V50H33V48ZM35 46H37V48H35V46ZM37 48H39V50H37V48ZM39 46H41V48H39V46ZM41 48H43V50H41V48ZM46 14H48V16H46V14ZM48 12H50V14H48V12ZM50 10H52V12H50V10ZM80 34H82V38H80V34ZM76 40H78V42H76V40ZM78 38H80V40H78V38ZM74 42H76V44H74V42ZM72 44H74V46H72V44ZM44 24H46V26H44V24ZM44 28H46V30H44V28ZM44 32H46V34H44V32ZM48 16H50V18H48V16ZM46 18H48V20H46V18ZM48 20H50V22H48V20ZM46 22H48V24H46V22ZM48 24H50V26H48V24ZM48 28H50V30H48V28ZM46 26H48V28H46V26ZM46 30H48V32H46V30ZM48 32H50V34H48V32ZM46 34H48V36H46V34ZM48 36H50V38H48V36ZM52 12H54V14H52V12ZM50 14H52V16H50V14ZM52 16H54V18H52V16ZM52 20H54V22H52V20ZM50 18H52V20H50V18ZM50 22H52V24H50V22ZM52 24H54V26H52V24ZM50 26H52V28H50V26ZM52 28H54V30H52V28ZM56 12H58V14H56V12ZM54 14H56V16H54V14ZM56 16H58V18H56V16ZM56 20H58V22H56V20ZM54 18H56V20H54V18ZM54 22H56V24H54V22ZM56 24H58V26H56V24ZM54 26H56V28H54V26ZM56 28H58V30H56V28ZM56 32H58V34H56V32ZM54 30H56V32H54V30ZM50 30H52V32H50V30ZM52 36H54V38H52V36ZM50 34H52V36H50V34ZM50 38H52V40H50V38ZM52 40H54V42H52V40ZM56 36H58V38H56V36ZM54 34H56V36H54V34ZM54 38H56V40H54V38ZM56 40H58V42H56V40ZM54 42H56V44H54V42ZM56 44H58V46H56V44ZM52 32H54V34H52V32Z" fill="black"/>
</svg>
