<svg width="57" height="73" viewBox="0 0 57 73" fill="none" xmlns="http://www.w3.org/2000/svg">
<g clip-path="url(#clip0_31_28)">
<path fill-rule="evenodd" clip-rule="evenodd" d="M6 65H8V64H10V65H55V67V71H53V67H4V71H2V67V65H4V64H6V65ZM2 62H4V64H2V65H0V4H2V6H4V8H2V10H4V12H2V14H4V16H2V18H4V20H2V22H4V24H2V26H4V28H2V30H4V32H2V34H4V36H2V38H4V40H2V42H4V44H2V46H4V48H2V50H4V52H2V54H4V56H2V58H4V60H2V62ZM9 56V54H8V52H10V54H15V56H10V58H8V56H9ZM12 39V40H10V39H9V37H48V39H12ZM6 2H4V0H53V2H12V4H10V2H8V4H6V2ZM7 34V32H6V30H7V28H6V26H7V24H6V22H7V20H6V18H7V16H6V14H7V12H6V10H7H9V37H7V36H6V34H7ZM10 8V6H12V8H48V10H9V8H10ZM26 20H31V17H33V25H31V22H26V25H24V17H26V20ZM2 2H4V4H2V2ZM53 2H55V4H53V2ZM14 17H16V25H14V17ZM41 17H43V25H41V17ZM24 30H33V32H24V30ZM33 15H41V17H33V15ZM16 15H24V17H16V15ZM18 19H22V23H18V19ZM35 19H39V23H35V19ZM16 25H24V27H16V25ZM33 25H41V27H33V25ZM23 54H48V56H23V54ZM48 10H50V37H48V10ZM4 71H53V73H4V71ZM55 4H57V65H55V4ZM4 4H6V6H4V4ZM6 6H8V8H6V6ZM4 8H6V10H4V8ZM4 12H6V14H4V12ZM4 16H6V18H4V16ZM4 20H6V22H4V20ZM4 24H6V26H4V24ZM4 28H6V30H4V28ZM4 32H6V34H4V32ZM6 38H8V40H6V38ZM4 36H6V38H4V36ZM4 40H6V42H4V40ZM8 4H10V6H8V4ZM6 42H8V44H6V42ZM10 42H12V44H10V42ZM8 40H10V42H8V40ZM8 44H10V46H8V44ZM4 44H6V46H4V44ZM6 46H8V48H6V46ZM10 46H12V48H10V46ZM8 48H10V50H8V48ZM4 48H6V50H4V48ZM6 50H8V52H6V50ZM10 50H12V52H10V50ZM4 52H6V54H4V52ZM6 54H8V56H6V54ZM4 56H6V58H4V56ZM6 58H8V60H6V58ZM10 58H12V60H10V58ZM8 60H10V62H8V60ZM4 60H6V62H4V60ZM6 62H8V64H6V62ZM10 62H12V64H10V62Z" fill="black"/>
</g>
<defs>
<clipPath id="clip0_31_28">
<rect width="57" height="73" fill="white"/>
</clipPath>
</defs>
</svg>
