<svg width="84" height="54" viewBox="0 0 84 54" fill="none" xmlns="http://www.w3.org/2000/svg">
<path fill-rule="evenodd" clip-rule="evenodd" d="M6 48V46H8V48H58V50H4V48H6ZM8 44H6V42H4V40H6V38H4V36H6V34H8V36H10V38H8V40H10V42H14V44H10V46H8V44ZM4 4V2H58V4H10V6H8V4H6V6H4V8H2V10H4V12H2V14H4V16H2V18H4V20H2V22H4V24H2V26H4V28H2V30H4V32H2V34H4V36H2V38H4V40H2V42H4V44H2V46H0V6H2V4H4ZM55 8H57V16H55V12H53V10H49V8H55ZM60 6H62V46H60V6ZM2 46H4V48H2V46ZM58 46H60V48H58V46ZM58 4H60V6H58V4ZM51 12H53V14H51V12ZM49 14H51V16H49V14ZM47 16H49V18H47V16ZM45 18H47V20H45V18ZM43 20H45V22H43V20ZM18 30H20V32H18V30ZM16 32H18V34H16V32ZM14 34H16V36H14V34ZM12 36H14V38H12V36ZM10 38H12V40H10V38ZM4 8H6V10H4V8ZM4 12H6V14H4V12ZM4 16H6V18H4V16ZM4 20H6V22H4V20ZM4 24H6V26H4V24ZM4 28H6V30H4V28ZM4 32H6V34H4V32ZM6 6H8V8H6V6ZM8 8H10V10H8V8ZM6 10H8V12H6V10ZM8 12H10V14H8V12ZM8 16H10V18H8V16ZM6 14H8V16H6V14ZM6 18H8V20H6V18ZM8 20H10V22H8V20ZM6 22H8V24H6V22ZM8 24H10V26H8V24ZM8 28H10V30H8V28ZM6 26H8V28H6V26ZM6 30H8V32H6V30ZM8 32H10V34H8V32ZM4 44H6V46H4V44Z" fill="black"/>
</svg>
